<mxfile host="Electron" agent="Mozilla/5.0 (Windows NT 10.0; Win64; x64) AppleWebKit/537.36 (KHTML, like Gecko) draw.io/24.7.17 Chrome/128.0.6613.36 Electron/32.0.1 Safari/537.36" version="24.7.17">
  <diagram name="Page-1" id="wkC2qdzr0887JsoExiUN">
    <mxGraphModel dx="1674" dy="836" grid="0" gridSize="10" guides="1" tooltips="1" connect="1" arrows="1" fold="1" page="1" pageScale="1" pageWidth="1169" pageHeight="827" background="#190033" math="0" shadow="1">
      <root>
        <mxCell id="0" />
        <mxCell id="1" parent="0" />
        <mxCell id="1UiL64bPMDfG-NYXSUDX-1" value="&lt;font color=&quot;#ffffff&quot;&gt;public int Sum(&lt;/font&gt;&lt;font color=&quot;#ff0000&quot;&gt;params&lt;/font&gt; &lt;font color=&quot;#ff8000&quot;&gt;int[]&lt;/font&gt; &lt;font color=&quot;#00cc00&quot;&gt;numbers&lt;/font&gt;&lt;font color=&quot;#ffffff&quot;&gt;)&lt;/font&gt;" style="text;html=1;align=center;verticalAlign=middle;whiteSpace=wrap;rounded=0;fontSize=30;" parent="1" vertex="1">
          <mxGeometry x="305" y="373" width="560" height="30" as="geometry" />
        </mxCell>
        <mxCell id="1UiL64bPMDfG-NYXSUDX-2" value="Nom" style="rounded=0;whiteSpace=wrap;html=1;fillColor=#f8cecc;strokeColor=#FFFFFF;fontStyle=1" parent="1" vertex="1">
          <mxGeometry x="550" y="324" width="70" height="20" as="geometry" />
        </mxCell>
        <mxCell id="1UiL64bPMDfG-NYXSUDX-3" value="" style="endArrow=none;html=1;rounded=0;entryX=0.5;entryY=1;entryDx=0;entryDy=0;exitX=0.5;exitY=0;exitDx=0;exitDy=0;strokeColor=#FFFFFF;" parent="1" source="1UiL64bPMDfG-NYXSUDX-1" target="1UiL64bPMDfG-NYXSUDX-2" edge="1">
          <mxGeometry width="50" height="50" relative="1" as="geometry">
            <mxPoint x="560" y="484" as="sourcePoint" />
            <mxPoint x="610" y="434" as="targetPoint" />
          </mxGeometry>
        </mxCell>
        <mxCell id="1UiL64bPMDfG-NYXSUDX-4" value="Variadique" style="rounded=0;whiteSpace=wrap;html=1;fillColor=#ffe6cc;strokeColor=#FFFFFF;fontStyle=1" parent="1" vertex="1">
          <mxGeometry x="633" y="324" width="70" height="20" as="geometry" />
        </mxCell>
        <mxCell id="1UiL64bPMDfG-NYXSUDX-5" value="" style="endArrow=none;html=1;rounded=0;entryX=0.5;entryY=1;entryDx=0;entryDy=0;exitX=0.5;exitY=0;exitDx=0;exitDy=0;strokeColor=#FFFFFF;" parent="1" target="1UiL64bPMDfG-NYXSUDX-4" edge="1">
          <mxGeometry width="50" height="50" relative="1" as="geometry">
            <mxPoint x="668" y="373" as="sourcePoint" />
            <mxPoint x="693" y="434" as="targetPoint" />
          </mxGeometry>
        </mxCell>
        <mxCell id="1UiL64bPMDfG-NYXSUDX-8" value="Type" style="rounded=0;whiteSpace=wrap;html=1;fillColor=#d5e8d4;strokeColor=#FFFFFF;fontStyle=1" parent="1" vertex="1">
          <mxGeometry x="727" y="324" width="70" height="20" as="geometry" />
        </mxCell>
        <mxCell id="1UiL64bPMDfG-NYXSUDX-9" value="" style="endArrow=none;html=1;rounded=0;entryX=0.5;entryY=1;entryDx=0;entryDy=0;exitX=0.5;exitY=0;exitDx=0;exitDy=0;strokeColor=#FFFFFF;" parent="1" target="1UiL64bPMDfG-NYXSUDX-8" edge="1">
          <mxGeometry width="50" height="50" relative="1" as="geometry">
            <mxPoint x="762" y="373" as="sourcePoint" />
            <mxPoint x="787" y="434" as="targetPoint" />
          </mxGeometry>
        </mxCell>
        <mxCell id="1UiL64bPMDfG-NYXSUDX-10" value="Tableau" style="rounded=0;whiteSpace=wrap;html=1;fillColor=#fff2cc;strokeColor=#FFFFFF;" parent="1" vertex="1">
          <mxGeometry x="650" y="444" width="70" height="20" as="geometry" />
        </mxCell>
        <mxCell id="1UiL64bPMDfG-NYXSUDX-11" value="" style="endArrow=none;html=1;rounded=0;entryX=0.5;entryY=0;entryDx=0;entryDy=0;strokeColor=#FFFFFF;" parent="1" target="1UiL64bPMDfG-NYXSUDX-10" edge="1">
          <mxGeometry width="50" height="50" relative="1" as="geometry">
            <mxPoint x="685" y="414" as="sourcePoint" />
            <mxPoint x="710" y="554" as="targetPoint" />
          </mxGeometry>
        </mxCell>
        <mxCell id="1UiL64bPMDfG-NYXSUDX-12" value="Sera transmis en tant que tranche Ã  la fonction" style="text;html=1;align=center;verticalAlign=middle;whiteSpace=wrap;rounded=0;strokeColor=none;fontColor=#FFFFFF;fontStyle=1;fontSize=15;" parent="1" vertex="1">
          <mxGeometry x="513.5" y="472" width="343" height="30" as="geometry" />
        </mxCell>
      </root>
    </mxGraphModel>
  </diagram>
</mxfile>
